<?xml version="1.0" encoding="UTF-8"?>
<svg width="31px" height="31px" viewBox="0 0 31 31" version="1.1" xmlns="http://www.w3.org/2000/svg" xmlns:xlink="http://www.w3.org/1999/xlink">
    <title>9778D5E1-EA19-4A3A-8532-33296F9B2EC3</title>
    <defs>
        <filter id="filter-1">
            <feColorMatrix in="SourceGraphic" type="matrix" values="0 0 0 0 1.000000 0 0 0 0 1.000000 0 0 0 0 1.000000 0 0 0 1.000000 0"></feColorMatrix>
        </filter>
    </defs>
    <g id="Beta-1-update" stroke="none" stroke-width="1" fill="none" fill-rule="evenodd" opacity="0.5">
        <g id="01.-Attract" transform="translate(-551.000000, -348.000000)">
            <g id="FUI/Circle2" transform="translate(514.000000, 346.000000)" filter="url(#filter-1)">
                <g transform="translate(37.708984, 2.406956)">
                    <path d="M10.0322134,28.3202686 C2.40890594,25.8437611 -1.76239974,17.6555209 0.71410773,10.0322134 C3.1906152,2.40890594 11.3788554,-1.76239974 19.0021629,0.71410773 C25.1014657,2.69465681 29.0330035,8.10421622 29.0330035,14.5155459 L24.9306721,14.5155459 C24.9306721,8.76768374 20.2666925,4.10370416 14.5188304,4.10370416 C8.76768374,4.10370416 4.10698865,8.76768374 4.10698865,14.5155459 C4.10698865,20.2666925 8.76768374,24.9273876 14.5188304,24.9273876 C19.1433961,24.9273876 23.0617958,21.9089389 24.4150068,17.7343487 L28.3202686,19.0021629 C25.8437611,26.6254703 17.6555209,30.796776 10.0322134,28.3202686" id="Fill-1" fill="#D52E30"></path>
                    <path d="M27.180982,14.6736339 C27.180982,7.77619935 21.5710685,2.16628588 14.6703494,2.16628588 C7.77619935,2.16628588 2.16300139,7.77619935 2.16300139,14.6736339 C2.16300139,21.5710685 7.77619935,27.1842665 14.6703494,27.1842665 C21.5710685,27.1842665 27.180982,21.5710685 27.180982,14.6736339 M1.60463764,14.6736339 C1.60463764,7.46745704 7.46745704,1.60463764 14.6703494,1.60463764 C21.8765263,1.60463764 27.7393457,7.46745704 27.7393457,14.6736339 C27.7393457,21.8798108 21.8765263,27.7426302 14.6703494,27.7426302 C7.46745704,27.7426302 1.60463764,21.8798108 1.60463764,14.6736339" id="Fill-8" fill="#D52E30"></path>
                </g>
            </g>
        </g>
    </g>
</svg>