<?xml version="1.0" encoding="UTF-8"?>
<svg width="50px" height="50px" viewBox="0 0 50 50" version="1.1" xmlns="http://www.w3.org/2000/svg" xmlns:xlink="http://www.w3.org/1999/xlink">
    <title>Group 6</title>
    <g id="Symbols" stroke="none" stroke-width="1" fill="none" fill-rule="evenodd">
        <g id="Group-6">
            <path d="M49.9991379,25 C49.9991379,38.8072357 38.8050026,50 25.0000212,50 C11.1915068,50 -0.000862068966,38.8072357 -0.000862068966,25 C-0.000862068966,11.1927643 11.1915068,0 25.0000212,0 C38.8050026,0 49.9991379,11.1927643 49.9991379,25" id="Fill-1" fill="#FFFFFF"></path>
            <path d="M38.2018966,21.2986667 C36.3415517,16.137 31.6018966,12.767 26.3277586,12.1853333 L26.3277586,15.4036667 C30.2294828,15.9603333 33.6932759,18.507 35.0777586,22.3503333 C37.0691379,27.8686667 34.045,33.9236667 28.3363793,35.847 C22.6277586,37.7703333 16.3656897,34.847 14.3760345,29.3286667 C12.7760345,24.897 14.4432759,20.1503333 18.107069,17.4453333 L18.107069,21.957 L21.4156897,21.957 L21.4156897,12.0753333 L11.195,12.0753333 L11.195,15.272 L15.5915517,15.272 C11.1708621,18.847 9.245,24.8153333 11.2518966,30.3803333 C13.8432759,37.5636667 21.9967241,41.3703333 29.4243103,38.867 C36.8553448,36.362 40.7932759,28.4803333 38.2018966,21.2986667" id="Fill-4" fill="#231F20"></path>
        </g>
    </g>
</svg>