<?xml version="1.0" encoding="UTF-8"?>
<svg width="28px" height="32px" viewBox="0 0 28 32" version="1.1" xmlns="http://www.w3.org/2000/svg" xmlns:xlink="http://www.w3.org/1999/xlink">
    <title>5CDE4954-6E4D-4BFA-B478-7103FDB81D8C</title>
    <defs>
        <filter id="filter-1">
            <feColorMatrix in="SourceGraphic" type="matrix" values="0 0 0 0 1.000000 0 0 0 0 1.000000 0 0 0 0 1.000000 0 0 0 1.000000 0"></feColorMatrix>
        </filter>
    </defs>
    <g id="Beta-1-update" stroke="none" stroke-width="1" fill="none" fill-rule="evenodd" opacity="0.5">
        <g id="01.-Attract" transform="translate(-514.000000, -347.000000)">
            <g id="FUI/Circle1" transform="translate(514.000000, 346.000000)" filter="url(#filter-1)">
                <g transform="translate(0.000000, 1.604638)">
                    <path d="M25.5763444,15.4759528 C25.5763444,8.57851817 19.9664309,2.96532021 13.0689963,2.96532021 C6.17156171,2.96532021 0.561648245,8.57851817 0.561648245,15.4759528 C0.561648245,22.3701029 6.17156171,27.9833008 13.0689963,27.9833008 C19.9664309,27.9833008 25.5763444,22.3701029 25.5763444,15.4759528 M0,15.4759528 C0,8.26977586 5.8628194,2.40695645 13.0689963,2.40695645 C20.2751732,2.40695645 26.1379926,8.26977586 26.1379926,15.4759528 C26.1379926,22.6821297 20.2751732,28.5449491 13.0689963,28.5449491 C5.8628194,28.5449491 0,22.6821297 0,15.4759528" id="Fill-5" fill="#D52E30"></path>
                    <path d="M6.04248818,28.5779889 C0.799427583,25.0523127 -1.70271565,18.3578284 0.346397195,12.050113 C2.82290466,4.42676305 11.0111449,0.255434142 18.6344523,2.7319554 C24.7337552,4.71251551 28.6652929,10.122105 28.6652929,16.5334704 L24.5629616,16.5334704 C24.5629616,10.7855763 19.898982,6.12157071 14.1511199,6.12157071 C8.3999732,6.12157071 3.73927811,10.7855763 3.73927811,16.5334704 C3.73927811,20.0648151 5.49646189,23.1850334 8.18432046,25.0676119 C7.18127412,26.7231361 7.59899571,26.1020691 6.04248818,28.5779889 Z" id="Fill-1" fill="#D52E30" transform="translate(14.148791, 15.297916) rotate(89.000000) translate(-14.148791, -15.297916) "></path>
                </g>
            </g>
        </g>
    </g>
</svg>