<?xml version="1.0" encoding="UTF-8"?>
<svg width="33px" height="33px" viewBox="0 0 33 33" version="1.1" xmlns="http://www.w3.org/2000/svg" xmlns:xlink="http://www.w3.org/1999/xlink">
    <title>5EF835F6-33EF-466A-B5AA-500DE92E616E</title>
    <defs>
        <filter id="filter-1">
            <feColorMatrix in="SourceGraphic" type="matrix" values="0 0 0 0 1.000000 0 0 0 0 1.000000 0 0 0 0 1.000000 0 0 0 1.000000 0"></feColorMatrix>
        </filter>
    </defs>
    <g id="Beta-1-update" stroke="none" stroke-width="1" fill="none" fill-rule="evenodd" opacity="0.5">
        <g id="01.-Attract" transform="translate(-587.000000, -346.000000)">
            <g id="FUI/Circle3" transform="translate(514.000000, 346.000000)" filter="url(#filter-1)">
                <g transform="translate(73.813331, 0.000000)">
                    <g transform="translate(0.641855, 0.641855)" fill="#D52E30">
                        <path d="M18.2578378,7.80364227 C20.5307067,8.13537603 22.5375317,9.33093136 23.9104497,11.1735317 C25.0567376,12.7139588 25.6118169,14.5138608 25.6118169,16.3006248 C25.6118169,18.9282189 24.4162615,21.5229681 22.1532461,23.2079129 C18.3498036,26.04243 12.9533822,25.2508673 10.118865,21.4507093 C7.28763232,17.6472668 8.07591056,12.2508453 11.8793531,9.41632816 C13.7186689,8.04341023 15.9849689,7.47190851 18.2578378,7.80364227 M11.6461541,9.10430136 C9.28131936,10.8680739 8.03321215,13.5810649 8.03321215,16.3236162 C8.03321215,18.1924926 8.61128286,20.0712224 9.81012268,21.6806238 C12.7694506,25.6548599 18.412209,26.4792675 22.3831606,23.5199397 C26.3573967,20.5573273 27.1818044,14.9178534 24.219192,10.9436173 C22.7871532,9.01890455 20.6883624,7.76751285 18.3136742,7.41935663 C15.938986,7.0744849 13.5708668,7.67226256 11.6461541,9.10430136" id="Fill-10"></path>
                        <path d="M24.063507,25.770474 C25.8042881,24.4730994 27.1476456,22.7323183 27.9556308,20.7287778 L25.8798315,19.8945167 C25.2262174,21.5137715 24.1357659,22.9261034 22.7267185,23.977141 C18.4995765,27.1269695 12.4988084,26.25001 9.3522644,22.0228679 C6.20243594,17.7957258 7.07939548,11.7982422 11.303253,8.64841378 C13.8224589,6.76968398 17.1069516,6.25401863 20.0892709,7.26235788 C20.5655224,7.42329802 21.0319203,7.62365207 21.4720423,7.85356656 L22.516511,5.87630197 C21.9712852,5.58726662 21.396499,5.34092967 20.8052903,5.14057562 C17.129943,3.8957529 13.0768791,4.53622897 9.96646453,6.85508079 C6.86261897,9.16736362 5.22365713,12.7244692 5.22365713,16.3275576 C5.22365713,18.7777891 5.98565943,21.2477276 7.55564692,23.3596564 C11.4412017,28.5754308 18.8477327,29.6593133 24.063507,25.770474" id="Fill-12"></path>
                        <path d="M26.5061842,9.24060781 L24.6471614,10.6266637 C24.8540844,10.9025611 25.044585,11.1915964 25.2186631,11.4872008 L27.2156346,10.3080679 C27.0021426,9.94348924 26.7623747,9.58219504 26.5061842,9.24060781" id="Fill-14"></path>
                        <path d="M25.9560317,13.0417512 L28.1336503,12.2436194 C27.9858482,11.8429113 27.8150546,11.4454877 27.624554,11.0612021 L25.5487546,12.0925328 C25.6998413,12.4012751 25.83779,12.7198709 25.9560317,13.0417512" id="Fill-16"></path>
                        <path d="M28.6841313,14.3135067 C28.6118725,13.8898072 28.5166222,13.4661076 28.3983805,13.0588305 L26.1682099,13.6960221 C26.2634602,14.0244714 26.342288,14.3627741 26.3981244,14.7043613 L28.6841313,14.3135067 Z" id="Fill-18"></path>
                        <path d="M26.5318033,16.419195 L28.8506551,16.4454709 L28.8539396,16.3009532 C28.8506551,15.9199521 28.8342326,15.5356664 28.7981032,15.1645188 L26.4891049,15.3845798 C26.5186653,15.6867531 26.5318033,15.9954954 26.5318033,16.3042377 L26.5318033,16.419195 Z" id="Fill-20"></path>
                        <path d="M26.4996152,17.1069677 C26.4766238,17.3960031 26.4339254,17.6948919 26.384658,17.9839273 L28.6673804,18.3879199 C28.7330703,18.0299102 28.7790532,17.662047 28.8118981,17.3007528 L26.4996152,17.1069677 Z" id="Fill-22"></path>
                        <path d="M15.2124562,3.28746486 L15.2879995,4.03304469 C19.7089267,3.57978471 24.0970089,5.5044974 26.7475944,9.06160296 C30.9156156,14.6583785 29.7561897,22.6002817 24.1594142,26.7683029 C21.9029678,28.4532476 19.2228218,29.3203537 16.411296,29.2776553 L16.3981581,30.0265196 C19.3771929,30.0725025 22.2149946,29.1528446 24.6093897,27.3726495 C30.537899,22.9550069 31.7662992,14.5401367 27.3486566,8.61491196 C24.5404154,4.84759887 19.8928583,2.80464444 15.2124562,3.28746486" id="Fill-24"></path>
                        <path d="M7.99248444,7.34512709 C8.26509733,7.08893666 8.55413269,6.84588421 8.85302152,6.61596972 L8.39319255,6.02476104 C8.07788125,6.26452901 7.77242343,6.52400393 7.48338808,6.79333233 L7.99248444,7.34512709 Z" id="Fill-27"></path>
                        <path d="M4.62916396,10.5846222 C4.45180135,10.9360629 4.28757672,11.3039261 4.13977455,11.6717893 L4.83608699,11.9476867 C4.97403569,11.6028149 5.13169133,11.2546587 5.29920046,10.9229249 L4.62916396,10.5846222 Z" id="Fill-29"></path>
                        <path d="M6.91451395,7.35136763 C6.64190106,7.63711849 6.37585715,7.93929181 6.12952021,8.24474963 L6.7141599,8.71771658 C6.94735888,8.42539673 7.19698032,8.13964587 7.45645524,7.87031747 L6.91451395,7.35136763 Z" id="Fill-31"></path>
                        <path d="M10.5711396,28.599736 L10.9094424,27.9296995 C10.5711396,27.7621904 10.2426904,27.5749743 9.92737907,27.3779047 L9.52995546,28.0183808 C9.86497371,28.2253038 10.2164144,28.4223734 10.5711396,28.599736" id="Fill-33"></path>
                        <path d="M12.4074995,29.3564831 L12.6406985,28.6437482 C12.2826888,28.5255065 11.931248,28.3941268 11.5863763,28.2463246 L11.290772,28.9360681 C11.6553507,29.0904392 12.0297828,29.2316724 12.4074995,29.3564831" id="Fill-35"></path>
                        <path d="M4.27805169,13.7377352 C4.3634485,13.3731565 4.46526777,13.0085778 4.58350951,12.6538526 L3.86749011,12.4206536 C3.74596388,12.7918013 3.63757562,13.1793714 3.54560983,13.5669415 L4.27805169,13.7377352 Z" id="Fill-37"></path>
                        <path d="M8.41257105,26.2759574 L7.92646614,26.8474592 C8.22535497,27.1036496 8.54395076,27.3499865 8.86911553,27.5766165 L9.30266857,26.9657009 C8.99392626,26.7522089 8.69503742,26.5190099 8.41257105,26.2759574" id="Fill-39"></path>
                        <path d="M6.26352751,9.31450889 L5.64932738,8.88095586 C5.42598188,9.20283614 5.20592087,9.53785439 5.00556682,9.88272612 L5.65589636,10.2604428 C5.84639694,9.93527801 6.05003548,9.61668222 6.26352751,9.31450889" id="Fill-41"></path>
                        <path d="M4.06455967,21.3860048 L4.7674411,21.1199609 C4.6327769,20.7685202 4.51453516,20.4105105 4.41271589,20.0492163 L3.69012751,20.2528548 C3.79851576,20.633856 3.92332648,21.0148571 4.06455967,21.3860048" id="Fill-43"></path>
                        <path d="M3.94434724,16.6533793 C3.94434724,16.55156 3.94434724,16.4431718 3.94763173,16.338068 L3.19548291,16.3216455 C3.19219842,16.4333183 3.19219842,16.5417065 3.19219842,16.6533793 C3.19219842,16.9391302 3.2020519,17.2281655 3.22175885,17.5139164 L3.97062318,17.464649 C3.95420072,17.1953206 3.94434724,16.9259922 3.94434724,16.6533793" id="Fill-45"></path>
                        <path d="M3.38959643,14.3453663 C3.32062208,14.7362209 3.27135469,15.1336445 3.23850976,15.5277837 L3.98737409,15.590189 C4.01693453,15.2157569 4.06620192,14.8413247 4.12860728,14.4734615 L3.38959643,14.3453663 Z" id="Fill-47"></path>
                        <path d="M4.23305414,19.3220296 C4.15422632,18.9541664 4.08853647,18.5797342 4.04255357,18.2151556 L3.29697373,18.3038369 C3.34624112,18.6946915 3.41521547,19.0921151 3.50061228,19.4829697 L4.23305414,19.3220296 Z" id="Fill-49"></path>
                        <path d="M6.45107204,24.1843925 C6.27370943,23.947909 6.1094848,23.7048566 5.95182915,23.4618041 L5.31792207,23.8657967 C5.48543119,24.1252717 5.6627938,24.3814621 5.85000988,24.634368 L6.00766553,24.8380066 L6.6021587,24.3814621 L6.45107204,24.1843925 Z" id="Fill-51"></path>
                        <path d="M7.33624281,26.3160283 L7.85519265,25.774087 C7.58586425,25.514612 7.32310484,25.2419992 7.07676789,24.9595328 L6.51183515,25.4522067 C6.77459456,25.7510955 7.05049195,26.0434154 7.33624281,26.3160283" id="Fill-53"></path>
                        <path d="M5.05417731,21.8126604 L4.37100283,22.1214027 C4.53194297,22.4826969 4.71259007,22.8407066 4.90965963,23.1855783 L5.56327367,22.8177151 C5.37934208,22.4925503 5.20854846,22.1542476 5.05417731,21.8126604" id="Fill-55"></path>
                        <path d="M23.6417782,3.84418636 L24.0030724,3.18728783 C23.8881151,3.12159798 23.7698734,3.05919262 23.6516317,3.00007175 L23.3067599,3.66682376 C23.4217172,3.72266014 23.5301054,3.781781 23.6417782,3.84418636" id="Fill-57"></path>
                        <path d="M22.6314682,3.33903139 L22.9402105,2.65585692 C22.8219688,2.60002054 22.7004426,2.54746866 22.5789164,2.49491678 L22.2865965,3.18794473 C22.4015537,3.23721212 22.516511,3.28647951 22.6314682,3.33903139" id="Fill-59"></path>
                        <path d="M24.6087328,4.42619846 L25.0192944,3.79886037 C24.9109061,3.72660153 24.7992334,3.65434269 24.6875606,3.58536834 L24.290137,4.22255992 C24.3985253,4.28824977 24.5036291,4.35722412 24.6087328,4.42619846" id="Fill-62"></path>
                        <path d="M19.4077387,2.30934294 L19.5522564,1.57033209 C19.4241612,1.54734065 19.2927814,1.5210647 19.1646862,1.50135775 L19.0398755,2.2403686 C19.1614017,2.26007555 19.2862125,2.283067 19.4077387,2.30934294" id="Fill-64"></path>
                        <path d="M25.5277339,5.08211165 L25.9875628,4.48761848 C25.8824591,4.40550616 25.7773553,4.32996283 25.668967,4.25113501 L25.228845,4.85548165 C25.3273798,4.93102499 25.4291991,5.00656832 25.5277339,5.08211165" id="Fill-67"></path>
                        <path d="M20.509686,2.56914631 L20.71004,1.84655793 C20.5819448,1.81042851 20.4538496,1.77758358 20.3257544,1.74473866 L20.1451073,2.47389603 C20.2666335,2.50345646 20.3881597,2.53630139 20.509686,2.56914631" id="Fill-69"></path>
                        <path d="M21.5840435,2.9123758 L21.840234,2.20620987 C21.7187077,2.16022698 21.5906125,2.11752857 21.4658018,2.07811466 L21.2293183,2.78756508 C21.3475601,2.83026348 21.4658018,2.86967739 21.5840435,2.9123758" id="Fill-72"></path>
                        <path d="M2.45942811,20.2278927 L1.73355523,20.4151087 C1.76640015,20.543204 1.79924508,20.6680147 1.8353745,20.7961099 L2.55796288,20.5924713 C2.52511796,20.4709451 2.49227303,20.3494189 2.45942811,20.2278927" id="Fill-75"></path>
                        <path d="M26.3905701,5.80699918 L26.896382,5.25191992 C26.7978472,5.16323862 26.6993124,5.07455732 26.5974931,4.98916051 L26.1113882,5.55737774 C26.203354,5.63949005 26.2986043,5.72160237 26.3905701,5.80699918" id="Fill-77"></path>
                        <path d="M2.22360153,19.1229893 L1.48459068,19.2510845 C1.50758213,19.3824642 1.53057358,19.5105595 1.55684952,19.6419392 L2.29257588,19.494137 C2.26958443,19.3693263 2.24659298,19.2478 2.22360153,19.1229893" id="Fill-79"></path>
                        <path d="M2.07448557,18.001992 L1.32562124,18.0742508 C1.33875921,18.2056305 1.35518167,18.3370102 1.37160414,18.4683899 L2.11718397,18.3797086 C2.10076151,18.2516134 2.08762354,18.1268027 2.07448557,18.001992" id="Fill-81"></path>
                        <path d="M18.2916681,2.13460793 L18.3803494,1.3890281 C18.2489697,1.37260564 18.11759,1.35946767 17.9862103,1.3463297 L17.9172359,2.09519402 C18.0420466,2.10833199 18.1668574,2.12146996 18.2916681,2.13460793" id="Fill-83"></path>
                        <path d="M27.1988837,6.59757656 L27.7441095,6.08191121 C27.6521437,5.98666093 27.5601779,5.89141064 27.4682121,5.79616035 L26.9361243,6.32496367 C27.0248056,6.41692947 27.1134869,6.50561077 27.1988837,6.59757656" id="Fill-86"></path>
                        <path d="M27.9415075,7.44924551 L28.5261472,6.97627857 C28.4407504,6.87445929 28.3553536,6.77264002 28.2732413,6.67410524 L27.7017396,7.16021016 C27.7805674,7.25546044 27.8626797,7.35071073 27.9415075,7.44924551" id="Fill-88"></path>
                        <path d="M2.78163684,21.3121037 L2.07218642,21.5518717 C2.11160033,21.6766824 2.15758323,21.8014931 2.20356613,21.9263038 L2.90644756,21.6668289 C2.86374915,21.5485872 2.82105075,21.4303454 2.78163684,21.3121037" id="Fill-90"></path>
                        <path d="M4.66759252,6.97956306 C4.5854802,7.08138233 4.50336789,7.1832016 4.42125557,7.28830537 L5.01903324,7.74484985 C5.09457657,7.64631507 5.17340439,7.54778029 5.25223222,7.45253 L4.66759252,6.97956306 Z" id="Fill-92"></path>
                        <path d="M1.28850647,15.6989057 C1.28193749,15.8302854 1.2753685,15.9649496 1.26879952,16.0963293 L2.02094833,16.1193208 C2.02423283,15.9945101 2.03080181,15.8696993 2.0373708,15.7448886 L1.28850647,15.6989057 Z" id="Fill-94"></path>
                        <path d="M3.95551451,7.93042368 C3.88325567,8.03881194 3.81099684,8.1472002 3.738738,8.25887295 L4.3660761,8.66943453 C4.43505044,8.56104628 4.50402479,8.459227 4.57628363,8.35412324 L3.95551451,7.93042368 Z" id="Fill-96"></path>
                        <path d="M3.32390657,8.93285084 C3.25493223,9.04780809 3.19252687,9.16276533 3.13012151,9.27772257 L3.79030453,9.63573227 C3.8494254,9.52734402 3.90854627,9.41567127 3.97423612,9.3105675 L3.32390657,8.93285084 Z" id="Fill-98"></path>
                        <path d="M5.45028712,6.08618106 C5.35832133,6.18143134 5.26964003,6.27996612 5.18095872,6.37521641 L5.73932248,6.87774379 C5.82471929,6.78577799 5.9101161,6.6938122 5.9955129,6.6018464 L5.45028712,6.08618106 Z" id="Fill-100"></path>
                        <path d="M1.61432814,13.3478659 C1.5880522,13.4759611 1.55849177,13.6073408 1.53550032,13.735436 L2.27122668,13.8766692 C2.29750262,13.755143 2.32049407,13.6270478 2.34677001,13.5055215 L1.61432814,13.3478659 Z" id="Fill-102"></path>
                        <path d="M2.76882731,9.9832316 C2.70970645,10.1014733 2.65715456,10.2229996 2.60131819,10.3412413 L3.28777715,10.6499836 C3.33704454,10.5350264 3.38959643,10.4200691 3.4454328,10.3083964 L2.76882731,9.9832316 Z" id="Fill-104"></path>
                        <path d="M1.26124518,16.8875636 C1.26452967,17.0189433 1.26781417,17.150323 1.27438315,17.2817027 L2.02324748,17.2521423 C2.01667849,17.1273316 2.013394,16.9992364 2.013394,16.8744257 L1.26124518,16.8875636 Z" id="Fill-106"></path>
                        <path d="M1.91256008,12.1963228 C1.87314616,12.324418 1.83701675,12.4492287 1.80417182,12.5773239 L2.5267602,12.7743935 C2.55960513,12.6528672 2.59573455,12.5346255 2.63186397,12.4130993 L1.91256008,12.1963228 Z" id="Fill-108"></path>
                        <path d="M1.40576286,14.5171453 C1.3893404,14.648525 1.37291793,14.7799047 1.35649547,14.9112844 L2.1020753,14.9933967 C2.11521327,14.868586 2.13163574,14.7437753 2.15134269,14.6189645 L1.40576286,14.5171453 Z" id="Fill-110"></path>
                        <path d="M2.29750262,11.0736832 C2.24823523,11.1984939 2.20553682,11.3200201 2.15955393,11.4448308 L2.86571985,11.6977368 C2.90841825,11.579495 2.95111666,11.4612533 2.99709955,11.3462961 L2.29750262,11.0736832 Z" id="Fill-112"></path>
                        <path d="M11.6152798,2.9090913 L11.3558049,2.20292538 C11.2342787,2.24890828 11.109468,2.29489118 10.9879418,2.34415857 L11.2638391,3.0437555 C11.3787964,2.99448811 11.4970381,2.95178971 11.6152798,2.9090913" id="Fill-114"></path>
                        <path d="M13.7915847,2.3044162 L13.647067,1.56868985 C13.5189718,1.59496579 13.3875921,1.62124173 13.2594969,1.64751767 L13.4237215,2.37995954 C13.5452477,2.35368359 13.666774,2.32740765 13.7915847,2.3044162" id="Fill-117"></path>
                        <path d="M12.6912796,2.56421957 L12.4909256,1.84163119 C12.3628304,1.87776061 12.2380197,1.91389003 12.1099244,1.95001945 L12.3299855,2.66932334 C12.4482272,2.63319392 12.5697534,2.5970645 12.6912796,2.56421957" id="Fill-120"></path>
                        <path d="M17.165744,2.04625508 L17.1953044,1.29410626 C17.0639247,1.29082177 16.932545,1.28753728 16.7978808,1.28425278 L16.7880273,2.0364016 C16.9128381,2.0396861 17.0376488,2.04297059 17.165744,2.04625508" id="Fill-123"></path>
                        <path d="M16.0352216,2.04461284 L16.0056612,1.29574851 C15.8742815,1.299033 15.7429018,1.30560199 15.6115221,1.31545546 L15.657505,2.06431979 C15.7856002,2.05446631 15.9104109,2.04789733 16.0352216,2.04461284" id="Fill-126"></path>
                        <path d="M6.30031382,5.25553286 C6.20177904,5.34421416 6.10324426,5.43289546 6.01127847,5.52486126 L6.52694382,6.07008704 C6.61890961,5.98140574 6.71087541,5.89600893 6.8028412,5.81061212 L6.30031382,5.25553286 Z" id="Fill-129"></path>
                        <path d="M14.9092975,2.13132344 L14.8239007,1.38574361 C14.692521,1.40216607 14.5611413,1.41858853 14.4297616,1.43829549 L14.5348654,2.18059083 C14.6596761,2.16088388 14.7844868,2.14446141 14.9092975,2.13132344" id="Fill-131"></path>
                        <path d="M8.59059056,4.42948296 L8.18002897,3.80214486 C8.06835622,3.8744037 7.95996797,3.94994703 7.84829521,4.02549036 L8.27856375,4.63969049 C8.38366752,4.56743165 8.48548679,4.4984573 8.59059056,4.42948296" id="Fill-134"></path>
                        <path d="M7.66994726,5.08868063 L7.21011829,4.49418746 C7.10501453,4.57629978 7.00319525,4.6584121 6.90137598,4.74052441 L7.37434292,5.32187961 C7.46959321,5.24305179 7.57141248,5.16422397 7.66994726,5.08868063" id="Fill-136"></path>
                        <path d="M10.5694974,3.33738915 L10.2574706,2.65421467 C10.1359444,2.71005105 10.0177026,2.76588742 9.89946088,2.8217238 L10.2279101,3.49832929 C10.3395829,3.44249291 10.4545401,3.38994103 10.5694974,3.33738915" id="Fill-138"></path>
                        <path d="M9.55918744,3.84582861 L9.19460876,3.18893008 C9.07965151,3.25133544 8.96469427,3.31702529 8.84973703,3.38271515 L9.23073818,4.03304469 C9.33912643,3.96735484 9.44751469,3.90823397 9.55918744,3.84582861" id="Fill-140"></path>
                        <path d="M25.7635604,28.9219447 C26.647089,28.2617617 27.4583587,27.5128974 28.1710936,26.6917742 L27.6094453,26.1991003 C26.9262708,26.9808096 26.1576996,27.6935445 25.3135849,28.3208826 C18.9876521,33.0341295 10.1622203,31.9108331 5.22891232,25.7622628 C5.11723957,25.6210296 5.00885131,25.4830809 4.90046305,25.3385632 L4.29940089,25.7885387 C4.41107364,25.9363409 4.52603089,26.0841431 4.64098813,26.2286608 C9.83048654,32.6958268 19.1091783,33.8815287 25.7635604,28.9219447" id="Fill-142"></path>
                    </g>
                </g>
            </g>
        </g>
    </g>
</svg>