<svg xmlns="http://www.w3.org/2000/svg" width="146" height="144" xmlns:v="https://vecta.io/nano"><defs><linearGradient x1="5.10363707%" y1="-4.80268127%" x2="96.9104419%" y2="107.218488%" id="A"><stop stop-color="#fcc69a" offset="0%"/><stop stop-color="#e0462d" offset="100%"/></linearGradient><linearGradient x1="4.87006673e-14%" y1="49.9306066%" x2="100%" y2="49.9306066%" id="B"><stop stop-color="#fcc69a" offset="0%"/><stop stop-color="#e0462d" offset="100%"/></linearGradient><linearGradient x1="0.100781053%" y1="50.093985%" x2="100%" y2="50.093985%" id="C"><stop stop-color="#fcc69a" offset="0%"/><stop stop-color="#e0462d" offset="100%"/></linearGradient><linearGradient x1="-5.94472065e-14%" y1="49.967916%" x2="100%" y2="49.967916%" id="D"><stop stop-color="#fcc69a" offset="0%"/><stop stop-color="#e0462d" offset="100%"/></linearGradient><linearGradient x1="0.0389787566%" y1="49.9952879%" x2="99.7076593%" y2="49.9952879%" id="E"><stop stop-color="#fcc69a" offset="0%"/><stop stop-color="#e0462d" offset="100%"/></linearGradient><linearGradient x1="26.7109575%" y1="23.8088947%" x2="83.6642211%" y2="77.8111445%" id="F"><stop stop-color="#fff" offset="0%"/><stop stop-color="#010101" offset="100%"/></linearGradient><radialGradient cx="32.9507279%" cy="21.9917343%" fx="32.9507279%" fy="21.9917343%" r="73.6169619%" gradientTransform="translate(0.329507,0.219917),scale(0.787953,1.000000),translate(-0.329507,-0.219917)" id="G"><stop stop-color="#fff" offset="0%"/><stop stop-color="#010101" offset="100%"/></radialGradient></defs><g fill="#fff"><ellipse opacity=".05" cx="73" cy="72" rx="73" ry="72"/><ellipse opacity=".05" cx="73" cy="72" rx="58.733" ry="57.928"/></g><ellipse fill="url(#A)" cx="73" cy="72" rx="47.256" ry="46.609"/><path d="M76.844 27.396c-3.253 2.461-14.323 7.072-22.344 3.81a37 37 0 0 1-2.292-1.057c-2.662 1.277-5.193 2.803-7.559 4.557l.481.273c3.299 1.796 7.006 2.737 10.774 2.734a24.18 24.18 0 0 0 4.38-.401 269.07 269.07 0 0 1 34.19-3.372l4.103-.128-3.567-1.987c-2.292-1.203-14.046-7.565-18.167-4.429z" fill="url(#B)"/><path d="M107.929 40.593a47.85 47.85 0 0 0-7.392-6.416 208.04 208.04 0 0 0-35.872 3.19c-7.789 1.474-15.784 1.548-23.6.219a47.41 47.41 0 0 0-6.487 7.2l.85.419c7.142 3.974 15.037 6.456 23.194 7.291a121.28 121.28 0 0 0 14.988 1.075c14.563 0 19.331-4.192 25.023-9.114l1.977-1.713c1.821-1.352 4.042-2.076 6.321-2.06l.998-.091z" fill="url(#C)"/><path d="M114.508 51.585l1.238.529c-1.415-2.955-3.143-5.753-5.156-8.348-5.544 1.167-12.161 4.83-18.481 8.385s-13.861 7.692-16.152 6.252a26.81 26.81 0 0 0-14.785-3.646l-4.158.292 3.696 1.823c1.959.966 2.698 2.042 2.717 2.497 0 0 0 .128-.166.237-1.09.62-5.433.456-14.046-4.703-5.37-3.17-11.424-5.043-17.668-5.468-1.798 3.276-3.194 6.752-4.158 10.353h.388c11.846-.583 17.206 3.992 21.105 7.291 2.624 2.242 4.879 4.156 7.984 3.518 1.749-.319 3.371-1.122 4.676-2.315 1.386-1.185 2.236-1.823 11.089 1.95a24.17 24.17 0 0 0 9.739 2.315c2.354.012 4.687-.447 6.856-1.349 5.692-2.351 10.238-7.674 13.158-15.403.625-2.133 2.126-3.911 4.14-4.903 2.65-.81 5.517-.561 7.984.693h0z" fill="url(#D)"/><path d="M118.408 59.204c-9.241 2.898-20.218 8.622-19.664 19.394.3 1.57-.189 3.187-1.312 4.338-2.495 1.95-8.723.182-14.785-1.531-4.441-1.525-9.074-2.439-13.768-2.716a2.12 2.12 0 0 0 0-.365c-.411-2.534-2.074-4.7-4.435-5.778-4.398-1.823-9.906 1.604-10.128 1.823l-1.257.766 1.072 1.003c2.247 2.003 2.92 5.211 1.663 7.929-.763 1.978-2.737 3.239-4.879 3.117-4.01-.383-7.392-.547-8.631 1.385-.406.717-.493 1.569-.24 2.351-1.515-.292-3.012-.547-4.472-.747-3.216-3.646-7.189-8.549-6.321-10.609s7.078-2.37 9.13-2.497c1.287-.181 2.596-.125 3.863.164-.35.591-.759 1.147-1.22 1.659-1.127 1.385-2.439 2.953-1.848 4.539.482 1.004 1.437 1.707 2.55 1.877 3.696 1.039 6.173.766 7.392-.802 1.7-2.151.665-6.307-3.271-13.069-3.068-5.304-10.405-6.981-21.789-4.958-.227 1.814-.345 3.64-.351 5.468.013 22.437 16.227 41.684 38.588 45.807h0a47.97 47.97 0 0 0 28.424-3.281l-.203-.237c-1.073-1.649-2.735-2.84-4.657-3.336a2.59 2.59 0 0 0-1.848.602 6.91 6.91 0 0 1-2.218.911c.481-.383.998-.802 1.515-1.276a4.84 4.84 0 0 1 3.696-1.495c2.144.146 4.158 2.151 5.711 3.937 12.588-6.348 21.638-17.915 24.672-31.534l-.813.383a47.57 47.57 0 0 0-9.241 5.815l-.148.128v.146a29.2 29.2 0 0 1-10.368 9.114c.513-.32.959-.735 1.312-1.221 1.312-1.823.314-2.862 0-3.117-1.173-.533-2.523-.533-3.696 0 6.801-3.044 12.937-8.221 13.51-11.866.111-.838 1.386-3.226 10.59-7.291v-1.95a46.5 46.5 0 0 0-1.848-12.759l-.277-.219zm-51.285 55.048a3.18 3.18 0 0 0-1.848.31 16.2 16.2 0 0 0 .296-1.823c1.478.437 2.772.875 3.936 1.276l.665.219c-1.015.066-2.033.072-3.049.018zm8.963-21.29c-2.181-2.953-4.676-6.289-7.522-6.471a4.11 4.11 0 0 0-3.327 1.476 34.62 34.62 0 0 0-5.341 6.471l-.481.911-4.879-1.531a40.08 40.08 0 0 1 5.175-3.755c2.374-1.422 4.591-3.084 6.616-4.958 4.224.425 8.01 2.754 10.257 6.307 2.754 3.846 7.725 5.122 14.027 3.646a29.58 29.58 0 0 0 4.14-1.349 5.63 5.63 0 0 0-1.497 1.112c-1.368 1.276-12.105 3.281-14.452 1.422a21.37 21.37 0 0 1-2.717-3.281h0zm20.828 5.286a33.13 33.13 0 0 1-16.226 2.844c1.238-.182 2.55-.346 3.936-.51a57.4 57.4 0 0 0 12.308-2.333h-.018z" fill="url(#E)"/><path d="M60.063 36.201a272.18 272.18 0 0 1 34.375-3.39s-13.177-7.291-16.892-4.521-15.191 7.291-23.489 3.955c-1.063-.434-2.099-.927-3.105-1.476-1.82.963-3.579 2.035-5.267 3.208 4.38 2.381 9.469 3.168 14.378 2.224h0z" fill="#e0462d" opacity=".8"/><path d="M99.871 41.851c2.009-1.521 4.472-2.341 7.004-2.333a47.37 47.37 0 0 0-4.75-4.229c-12.448-.038-24.874 1.029-37.128 3.19a67.44 67.44 0 0 1-24.82 0c-1.725 1.666-3.313 3.464-4.75 5.377 7.201 4.096 15.188 6.666 23.452 7.546 28.683 3.627 32.693-2.552 40.991-9.551z" fill="#ffe0bf"/><path d="M56.644 69.521c6.856-1.404 2.292-6.489 16.356-.273s23.73-1.695 28.313-13.835c2.938-7.783 9.37-6.671 13.639-4.867a44.92 44.92 0 0 0-3.696-5.796c-11.939 2.206-30.808 17.918-36.075 14.582a26.16 26.16 0 0 0-14.046-3.372c6.875 3.372 3.437 9.588-12.586 0A39.52 39.52 0 0 0 30.9 50.673c-1.322 2.554-2.411 5.22-3.253 7.966 20.052-.966 22.325 12.249 28.997 10.882z" fill="#e0462d" opacity=".8"/><path d="M65.885 83.939c4.786.263 9.14 2.815 11.662 6.835 7.392 10.39 30.069-3.445 30.919-9.661.388-2.716 5.803-5.796 11.772-8.403V72c.005-3.953-.498-7.892-1.497-11.721-8.557 2.679-19.405 8.093-18.888 18.228.739 14.108-20.791.237-32.009 1.349a5.27 5.27 0 0 0-.129-1.312c-2.384-9.879-12.807-3.409-12.807-3.409 5.433 5.086 1.719 13.562-4.121 12.996-5.415-.529-9.795-.565-6.783 4.156a94.05 94.05 0 0 0-7.041-1.239c-10.109-11.429-9.481-14.582 3.327-15.293s-3.437 6.453 3.696 8.421 9.444-.838 2.865-12.213c-3.456-5.979-12.826-5.833-20.939-4.356-.129 1.422-.222 2.88-.222 4.356-.007 6.312 1.295 12.558 3.826 18.355 0 .146.129.273.185.401a37.56 37.56 0 0 0 1.848 3.646l.277.474c.185.328.37.656.573.966s.24.401.37.602.37.602.573.893l.425.638.591.857.481.638c.185.273.388.529.61.802l.536.674.536.674a49.52 49.52 0 0 0 4.842 4.976l.259.219c1.035.911 2.125 1.823 3.234 2.588h0l.979.674.333.237.222.164a47.94 47.94 0 0 0 16.633 6.999 14.16 14.16 0 0 0 1.349-6.343c10.22 2.789 12.031 5.961 19.886-1.039 4.491-4.01 8.353-.51 11.089 2.752 11.617-6.222 20.062-16.958 23.286-29.602-3.115 1.588-6.041 3.514-8.723 5.742 0 0-13.177 21.454-43.818 9.879-4.916-1.823-9.425-3.317-13.547-4.484 2.255-3.336 9.739-6.471 13.343-10.408z" fill="#ffe0bf" opacity=".6"/><g fill="#e0462d"><path d="M53.909 109.549c-10.128-1.695-3.696-5.286-6.302-10.08-1.848-3.281-9.832-3.172-14.785-2.789l.462.711.425.638.591.857.481.638c.185.273.388.529.61.802l.536.674.536.674a49.52 49.52 0 0 0 4.842 4.976l.259.219c1.035.911 2.125 1.823 3.234 2.588h0l.979.674.333.237.222.164a47.88 47.88 0 0 0 13.824 6.289c5.47-2.661 3.123-5.724-6.247-7.273z" opacity=".7"/><path d="M60.932 94.949s11.089 6.398 17.945 5.268 17.945-1.604 20.052-4.612-3.53-1.604-4.768 0-13.085 3.919-16.042 1.586-7.744-12.887-12.031-8.367c-1.957 1.835-3.687 3.89-5.156 6.125h0z"/><path d="M91.573 114.854c-1.534-1.823-3.604-3.646-4.971-2.588-2.384 1.987-15.746 3.39-19.553 3.117-1.848-.146-1.848 1.239-1.423 2.643a46.83 46.83 0 0 0 7.392.565c6.378.008 12.691-1.264 18.555-3.737h0z" opacity=".6"/></g><path d="M105.822 38.479c9.711 20.351 3.301 44.64-15.239 57.738s-43.918 11.269-60.33-4.349c8.068 16.907 25.593 27.428 44.525 26.728s35.611-12.483 42.374-29.937 2.303-37.206-11.331-50.18h0z" fill="url(#F)" opacity=".6" style="mix-blend-mode:darken"/><path d="M25.744 72v1.586c14.602 6.229 31.402 4.792 44.7-3.822s21.308-23.249 21.314-38.941v-1.604c-14.606-6.22-31.404-4.777-44.699 3.839S25.753 56.309 25.744 72h0z" fill="url(#G)" opacity=".8" style="mix-blend-mode:screen"/></svg>